<svg xmlns="http://www.w3.org/2000/svg" xmlns:xlink="http://www.w3.org/1999/xlink" xmlns:lucid="lucid" width="2336" height="664"><g transform="translate(-558 142)" lucid:page-tab-id="0_0"><path d="M500-500h2500v1500H500z" fill="#fff"/><path d="M560-54a6 6 0 0 1 6-6h448a6 6 0 0 1 6 6v568a6 6 0 0 1-6 6H566a6 6 0 0 1-6-6z" stroke="#635dff" stroke-width="4" fill="#9391ff"/><use xlink:href="#a" transform="matrix(1,0,0,1,572,-48) translate(155.65190972222223 21.52777777777778)"/><use xlink:href="#b" transform="matrix(1,0,0,1,572,-48) translate(222.25347222222223 21.52777777777778)"/><use xlink:href="#c" transform="matrix(1,0,0,1,572,-48) translate(74.19574652777777 53.79340277777778)"/><use xlink:href="#d" transform="matrix(1,0,0,1,572,-48) translate(158.45138888888889 53.79340277777778)"/><use xlink:href="#e" transform="matrix(1,0,0,1,572,-48) translate(215.8515625 53.79340277777778)"/><use xlink:href="#f" transform="matrix(1,0,0,1,572,-48) translate(331.19444444444446 53.79340277777778)"/><path d="M580 46a6 6 0 0 1 6-6h408a6 6 0 0 1 6 6v128a6 6 0 0 1-6 6H586a6 6 0 0 1-6-6z" stroke="#635dff" stroke-width="4" fill="#fff"/><use xlink:href="#g" transform="matrix(1,0,0,1,592,52) translate(127.86111111111111 65.02777777777777)"/><use xlink:href="#h" transform="matrix(1,0,0,1,592,52) translate(181.44184027777777 65.02777777777777)"/><path d="M580 206a6 6 0 0 1 6-6h408a6 6 0 0 1 6 6v128a6 6 0 0 1-6 6H586a6 6 0 0 1-6-6z" stroke="#635dff" stroke-width="4" fill="#fff"/><use xlink:href="#i" transform="matrix(1,0,0,1,592,212) translate(138.23980034722223 65.02777777777777)"/><use xlink:href="#j" transform="matrix(1,0,0,1,592,212) translate(215.21462673611111 65.02777777777777)"/><path d="M580 366a6 6 0 0 1 6-6h408a6 6 0 0 1 6 6v128a6 6 0 0 1-6 6H586a6 6 0 0 1-6-6z" stroke="#635dff" stroke-width="4" fill="#fff"/><use xlink:href="#k" transform="matrix(1,0,0,1,592,372) translate(164.54188368055554 65.02777777777777)"/><path d="M1120-54a6 6 0 0 1 6-6h1168a6 6 0 0 1 6 6v568a6 6 0 0 1-6 6H1126a6 6 0 0 1-6-6z" stroke="#ba23f6" stroke-width="4" fill="#e08fff"/><use xlink:href="#l" transform="matrix(1,0,0,1,1132,-47.99999999999994) translate(458.81684027777777 21.52777777777778)"/><use xlink:href="#m" transform="matrix(1,0,0,1,1132,-47.99999999999994) translate(516.1736111111111 21.52777777777778)"/><use xlink:href="#n" transform="matrix(1,0,0,1,1132,-47.99999999999994) translate(602.0568576388889 21.52777777777778)"/><use xlink:href="#j" transform="matrix(1,0,0,1,1132,-47.99999999999994) translate(655.6375868055555 21.52777777777778)"/><path d="M1160 166a6 6 0 0 1 6-6h248a6 6 0 0 1 6 6v128a6 6 0 0 1-6 6h-248a6 6 0 0 1-6-6z" stroke="#ba23f6" stroke-width="4" fill="#fff"/><use xlink:href="#o" transform="matrix(1,0,0,1,1172,172.00000000000006) translate(42.55512152777777 65.02777777777777)"/><use xlink:href="#p" transform="matrix(1,0,0,1,1172,172.00000000000006) translate(142.55512152777777 65.02777777777777)"/><a xlink:href="http://ASP.NET" target="_blank" transform="matrix(1,0,0,1,1172,172.00000000000006)"><path class="lucid-link lucid-hotspot lucid-overlay-hotspot" fill-opacity="0" d="M42.56 43.5h93.75v26.9H42.57z"/></a><path d="M1520 166a6 6 0 0 1 6-6h248a6 6 0 0 1 6 6v128a6 6 0 0 1-6 6h-248a6 6 0 0 1-6-6z" stroke="#ba23f6" stroke-width="4" fill="#fff"/><use xlink:href="#q" transform="matrix(1,0,0,1,1532,172) translate(86.85308159722223 65.02777777777777)"/><path d="M1860-34a6 6 0 0 1 6-6h388a6 6 0 0 1 6 6v528a6 6 0 0 1-6 6h-388a6 6 0 0 1-6-6z" stroke="#ba23f6" stroke-width="4" fill="#ffd6f5"/><use xlink:href="#r" transform="matrix(1,0,0,1,1865,-35.000000000000114) translate(128.38216145833331 21.52777777777778)"/><use xlink:href="#s" transform="matrix(1,0,0,1,1865,-35.000000000000114) translate(170.1247829861111 21.52777777777778)"/><path d="M1950 46a6 6 0 0 1 6-6h248a6 6 0 0 1 6 6v68a6 6 0 0 1-6 6h-248a6 6 0 0 1-6-6z" stroke="#ba23f6" stroke-width="4" fill="#fff"/><use xlink:href="#l" transform="matrix(1,0,0,1,1962,52) translate(45.859157986111114 35.52777777777778)"/><use xlink:href="#t" transform="matrix(1,0,0,1,1962,52) translate(103.21592881944444 35.52777777777778)"/><use xlink:href="#u" transform="matrix(1,0,0,1,1962,52) translate(154.64822048611111 35.52777777777778)"/><path d="M1950 206a6 6 0 0 1 6-6h248a6 6 0 0 1 6 6v68a6 6 0 0 1-6 6h-248a6 6 0 0 1-6-6z" stroke="#ba23f6" stroke-width="4" fill="#fff"/><use xlink:href="#v" transform="matrix(1,0,0,1,1962,212) translate(52.787326388888886 35.52777777777778)"/><use xlink:href="#u" transform="matrix(1,0,0,1,1962,212) translate(147.72005208333331 35.52777777777778)"/><path d="M1950 366a6 6 0 0 1 6-6h248a6 6 0 0 1 6 6v68a6 6 0 0 1-6 6h-248a6 6 0 0 1-6-6z" stroke="#ba23f6" stroke-width="4" fill="#fff"/><use xlink:href="#w" transform="matrix(1,0,0,1,1962,372) translate(65.98177083333334 35.52777777777778)"/><use xlink:href="#u" transform="matrix(1,0,0,1,1962,372) translate(134.52560763888889 35.52777777777778)"/><path d="M1004 110h280a6 6 0 0 1 6 6v19.26" stroke="#3a414a" stroke-width="4" fill="none"/><path d="M1004.05 111.97H1002v-3.94h2.05z" stroke="#3a414a" stroke-width=".05" fill="#3a414a"/><path d="M1290 151.53l-4.63-14.27h9.27z" stroke="#3a414a" stroke-width="4" fill="#3a414a"/><path d="M1004 270h70a6 6 0 0 0 6-6v-28a6 6 0 0 1 6-6h49.26" stroke="#3a414a" stroke-width="4" fill="none"/><path d="M1004.05 271.98H1002v-3.96h2.05z" stroke="#3a414a" stroke-width=".05" fill="#3a414a"/><path d="M1151.53 230l-14.27 4.63v-9.26z" stroke="#3a414a" stroke-width="4" fill="#3a414a"/><path d="M1004 430h280a6 6 0 0 0 6-6v-99.26" stroke="#3a414a" stroke-width="4" fill="none"/><path d="M1004.05 431.98H1002v-3.96h2.05z" stroke="#3a414a" stroke-width=".05" fill="#3a414a"/><path d="M1290 308.47l4.63 14.27h-9.27z" stroke="#3a414a" stroke-width="4" fill="#3a414a"/><path d="M1424 230h71.26" stroke="#3a414a" stroke-width="4" fill="none"/><path d="M1424.05 231.97H1422v-3.94h2.05z" stroke="#3a414a" stroke-width=".05" fill="#3a414a"/><path d="M1511.53 230l-14.27 4.63v-9.26z" stroke="#3a414a" stroke-width="4" fill="#3a414a"/><path d="M1290 304v90a6 6 0 0 0 6 6h629.26" stroke="#3a414a" stroke-width="4" fill="none"/><path d="M1291.97 304.05h-3.94V302h3.94z" stroke="#3a414a" stroke-width=".05" fill="#3a414a"/><path d="M1941.53 400l-14.27 4.63v-9.26z" stroke="#3a414a" stroke-width="4" fill="#3a414a"/><path d="M2410-54a6 6 0 0 1 6-6h448a6 6 0 0 1 6 6v248a6 6 0 0 1-6 6h-448a6 6 0 0 1-6-6z" stroke="#00c2a8" stroke-width="4" fill="#008573"/><use xlink:href="#x" transform="matrix(1,0,0,1,2422,-48) translate(138.43728298611111 21.52777777777778)"/><use xlink:href="#y" transform="matrix(1,0,0,1,2422,-48) translate(206.38433159722223 21.52777777777778)"/><path d="M2430 6a6 6 0 0 1 6-6h408a6 6 0 0 1 6 6v68a6 6 0 0 1-6 6h-408a6 6 0 0 1-6-6z" stroke="#008573" stroke-width="4" fill="#fff"/><use xlink:href="#z" transform="matrix(1,0,0,1,2442,12) translate(128.01302083333334 35.52777777777778)"/><use xlink:href="#y" transform="matrix(1,0,0,1,2442,12) translate(176.80859375 35.52777777777778)"/><path d="M2430 106a6 6 0 0 1 6-6h408a6 6 0 0 1 6 6v68a6 6 0 0 1-6 6h-408a6 6 0 0 1-6-6z" stroke="#008573" stroke-width="4" fill="#fff"/><use xlink:href="#x" transform="matrix(1,0,0,1,2442,112) translate(89.31401909722223 35.52777777777778)"/><use xlink:href="#A" transform="matrix(1,0,0,1,2442,112) translate(157.26106770833331 35.52777777777778)"/><use xlink:href="#B" transform="matrix(1,0,0,1,2442,112) translate(207.326171875 35.52777777777778)"/><path d="M2854 40h32a6 6 0 0 1 6 6v88a6 6 0 0 1-6 6h-11.26" stroke="#3a414a" stroke-width="4" fill="none"/><path d="M2854.05 41.98H2852v-3.95h2.05z" stroke="#3a414a" stroke-width=".05" fill="#3a414a"/><path d="M2858.47 140l14.27-4.63v9.26z" stroke="#3a414a" stroke-width="4" fill="#3a414a"/><path d="M2410 226a6 6 0 0 1 6-6h448a6 6 0 0 1 6 6v288a6 6 0 0 1-6 6h-448a6 6 0 0 1-6-6z" stroke="#008a0e" stroke-width="4" fill="#54c45e"/><use xlink:href="#C" transform="matrix(1,0,0,1,2422,232) translate(145.11588541666669 21.52777777777778)"/><use xlink:href="#D" transform="matrix(1,0,0,1,2422,232) translate(236.99956597222223 21.52777777777778)"/><path d="M2430 286a6 6 0 0 1 6-6h408a6 6 0 0 1 6 6v68a6 6 0 0 1-6 6h-408a6 6 0 0 1-6-6z" stroke="#008a0e" stroke-width="4" fill="#fff"/><use xlink:href="#v" transform="matrix(1,0,0,1,2442,292.00000000000006) translate(132.78732638888889 35.52777777777778)"/><use xlink:href="#u" transform="matrix(1,0,0,1,2442,292.00000000000006) translate(227.72005208333331 35.52777777777778)"/><path d="M2430 396a6 6 0 0 1 6-6h408a6 6 0 0 1 6 6v68a6 6 0 0 1-6 6h-408a6 6 0 0 1-6-6z" stroke="#008a0e" stroke-width="4" fill="#fff"/><g><use xlink:href="#E" transform="matrix(1,0,0,1,2442,402) translate(89.09157986111111 35.52777777777778)"/><use xlink:href="#F" transform="matrix(1,0,0,1,2442,402) translate(170.53689236111111 35.52777777777778)"/><use xlink:href="#G" transform="matrix(1,0,0,1,2442,402) translate(271.4157986111111 35.52777777777778)"/></g><path d="M1290 156v-290a6 6 0 0 1 6-6h1086a6 6 0 0 1 6 6V34a6 6 0 0 0 6 6h11.26" stroke="#3a414a" stroke-width="4" fill="none"/><path d="M1291.97 158h-3.94v-2.05h3.94z" stroke="#3a414a" stroke-width=".05" fill="#3a414a"/><path d="M2421.53 40l-14.27 4.63v-9.27z" stroke="#3a414a" stroke-width="4" fill="#3a414a"/><path d="M2264 230h75a6 6 0 0 0 6-6V46a6 6 0 0 1 6-6h54.26" stroke="#3a414a" stroke-width="4" fill="none"/><path d="M2264.05 231.97H2262v-3.94h2.05z" stroke="#3a414a" stroke-width=".05" fill="#3a414a"/><path d="M2421.53 40l-14.27 4.63v-9.27z" stroke="#3a414a" stroke-width="4" fill="#3a414a"/><path d="M2264 230h75a6 6 0 0 0 6-6v-78a6 6 0 0 1 6-6h54.26" stroke="#3a414a" stroke-width="4" fill="none"/><path d="M2264.05 231.97H2262v-3.94h2.05z" stroke="#3a414a" stroke-width=".05" fill="#3a414a"/><path d="M2421.53 140l-14.27 4.63v-9.26z" stroke="#3a414a" stroke-width="4" fill="#3a414a"/><path d="M1784 230h30a6 6 0 0 1 6 6v156a6 6 0 0 0 6 6h99.26" stroke="#3a414a" stroke-width="4" fill="none"/><path d="M1784.05 231.97H1782v-3.94h2.05z" stroke="#3a414a" stroke-width=".05" fill="#3a414a"/><path d="M1941.53 398l-14.27 4.62v-9.27z" stroke="#3a414a" stroke-width="4" fill="#3a414a"/><path d="M2080 284v30a6 6 0 0 0 6 6h319.26" stroke="#3a414a" stroke-width="4" fill="none"/><path d="M2081.97 284.05h-3.94V282h3.94z" stroke="#3a414a" stroke-width=".05" fill="#3a414a"/><path d="M2421.53 320l-14.27 4.63v-9.26z" stroke="#3a414a" stroke-width="4" fill="#3a414a"/><path d="M2214 240h100a6 6 0 0 1 6 6v178a6 6 0 0 0 6 6h79.26" stroke="#3a414a" stroke-width="4" fill="none"/><path d="M2214.05 241.97H2212v-3.94h2.05z" stroke="#3a414a" stroke-width=".05" fill="#3a414a"/><path d="M2421.53 430l-14.27 4.63v-9.26z" stroke="#3a414a" stroke-width="4" fill="#3a414a"/><defs><path d="M783 20c-382 0-661-292-661-764 0-473 279-766 661-766 302 0 548 182 601 489h-190c-42-204-217-313-411-313-268 0-476 208-476 590 0 381 209 588 476 588 195 0 369-110 411-313h190c-52 303-296 489-601 489" id="H"/><path d="M338-1490V0H158v-1490h180" id="I"/><path d="M158 0v-1118h180V0H158zm91-1301c-68 0-125-53-125-119s57-119 125-119c69 0 126 53 126 119s-57 119-126 119" id="J"/><path d="M628 24c-324 0-524-230-524-574 0-343 198-582 503-582 237 0 487 146 487 559v75H286c9 234 145 362 343 362 132 0 231-58 273-172l174 48C1024-91 857 24 628 24zM287-650h624c-17-190-120-322-304-322-192 0-309 151-320 322" id="K"/><path d="M338-670V0H158v-1118h173l1 207c72-158 192-221 342-221 226 0 378 139 378 422V0H872v-695c0-172-96-275-252-275-161 0-282 109-282 300" id="L"/><path d="M598-1118v154H368v674c0 100 37 144 132 144 23 0 62-6 92-12L629-6c-37 13-88 20-134 20-193 0-307-107-307-290v-688H20v-154h168v-266h180v266h230" id="M"/><g id="a"><use transform="matrix(0.010850694444444444,0,0,0.010850694444444444,0,0)" xlink:href="#H"/><use transform="matrix(0.010850694444444444,0,0,0.010850694444444444,16.23263888888889,0)" xlink:href="#I"/><use transform="matrix(0.010850694444444444,0,0,0.010850694444444444,21.614583333333336,0)" xlink:href="#J"/><use transform="matrix(0.010850694444444444,0,0,0.010850694444444444,26.99652777777778,0)" xlink:href="#K"/><use transform="matrix(0.010850694444444444,0,0,0.010850694444444444,39.95225694444444,0)" xlink:href="#L"/><use transform="matrix(0.010850694444444444,0,0,0.010850694444444444,53.08159722222222,0)" xlink:href="#M"/></g><path d="M180 0v-1490h190v1322h690V0H180" id="N"/><path d="M471 26C259 26 90-98 90-318c0-256 228-303 435-329 202-27 287-16 287-108 0-139-79-219-234-219-161 0-248 86-283 164l-173-57c86-203 278-265 451-265 150 0 419 46 419 395V0H815v-152h-12C765-73 660 26 471 26zm31-159c199 0 310-134 310-271v-155c-30 35-226 55-295 64-131 17-246 59-246 186 0 116 97 176 231 176" id="O"/><path d="M140 405l46-156c120 36 205 19 263-150l32-93L54-1118h197c107 313 237 620 324 950 87-331 219-637 326-950h196L606 167c-68 178-176 259-334 259-64 0-113-12-132-21" id="P"/><path d="M158 0v-1118h174v172h12c41-113 157-188 290-188 26 0 70 2 91 3v181c-11-2-60-10-108-10-161 0-279 109-279 260V0H158" id="Q"/><g id="b"><use transform="matrix(0.010850694444444444,0,0,0.010850694444444444,0,0)" xlink:href="#N"/><use transform="matrix(0.010850694444444444,0,0,0.010850694444444444,12.565104166666666,0)" xlink:href="#O"/><use transform="matrix(0.010850694444444444,0,0,0.010850694444444444,24.717881944444443,0)" xlink:href="#P"/><use transform="matrix(0.010850694444444444,0,0,0.010850694444444444,36.77300347222222,0)" xlink:href="#K"/><use transform="matrix(0.010850694444444444,0,0,0.010850694444444444,49.728732638888886,0)" xlink:href="#Q"/></g><path d="M218-607c0-325 108-727 258-974h175c-155 315-250 682-250 974 0 265 78 531 250 886H476C306-10 218-315 218-607" id="R"/><path d="M180 0v-1490h190v644h782v-644h190V0h-190v-678H370V0H180" id="S"/><path d="M98-1322v-168h1126v168H757V0H567v-1322H98" id="T"/><path d="M180 0v-1490h270l367 940c28 72 75 218 110 339 35-117 81-264 110-339l362-940h271V0h-187c2-448-5-837 7-1287-157 497-311 829-483 1287H842C666-458 514-784 354-1284c12 438 5 843 7 1284H180" id="U"/><path d="M128 359l88-567h206L266 359H128" id="V"/><g id="c"><use transform="matrix(0.010850694444444444,0,0,0.010850694444444444,0,0)" xlink:href="#R"/><use transform="matrix(0.010850694444444444,0,0,0.010850694444444444,8.10546875,0)" xlink:href="#S"/><use transform="matrix(0.010850694444444444,0,0,0.010850694444444444,24.620225694444443,0)" xlink:href="#T"/><use transform="matrix(0.010850694444444444,0,0,0.010850694444444444,38.96484375,0)" xlink:href="#U"/><use transform="matrix(0.010850694444444444,0,0,0.010850694444444444,59.03862847222222,0)" xlink:href="#N"/><use transform="matrix(0.010850694444444444,0,0,0.010850694444444444,71.60373263888889,0)" xlink:href="#V"/></g><path d="M657 26c-323 0-524-166-541-416h195c15 169 171 246 346 246 202 0 356-106 356-265 5-203-294-238-475-293-239-73-380-191-380-389 0-252 224-419 512-419 294 0 499 171 508 396H992c-17-145-151-228-328-228-193 0-321 102-321 242 0 156 175 211 284 241l149 41c160 44 422 134 422 412 0 244-197 432-541 432" id="W"/><g id="d"><use transform="matrix(0.010850694444444444,0,0,0.010850694444444444,0,0)" xlink:href="#H"/><use transform="matrix(0.010850694444444444,0,0,0.010850694444444444,16.23263888888889,0)" xlink:href="#W"/><use transform="matrix(0.010850694444444444,0,0,0.010850694444444444,30.49045138888889,0)" xlink:href="#W"/><use transform="matrix(0.010850694444444444,0,0,0.010850694444444444,44.748263888888886,0)" xlink:href="#V"/></g><path d="M545 20c-263 0-445-160-445-446v-80h190v80c0 182 102 279 255 279 152 0 254-97 254-279v-1064h190v1064c0 286-181 446-444 446" id="X"/><path d="M481 0L54-1118h197c107 314 236 620 325 951 87-331 217-637 324-951h197L670 0H481" id="Y"/><path d="M538 24C308 24 148-78 108-271l171-41c32 123 123 178 257 178 156 0 256-77 256-169 0-77-54-128-164-154l-186-44c-203-48-300-148-300-305 0-192 176-326 414-326 230 0 351 112 402 269l-163 42c-31-80-94-158-238-158-133 0-233 69-233 162 0 83 57 129 188 160l169 40c203 48 298 149 298 302 0 196-179 339-441 339" id="Z"/><path d="M613 24c-304 0-509-231-509-576 0-350 205-580 509-580 216 0 392 114 453 309l-173 49c-33-115-133-197-280-197-223 0-326 196-326 419 0 220 103 415 326 415 150 0 252-85 285-206l172 49C1010-95 832 24 613 24" id="aa"/><path d="M158 418v-1536h174v179h20c37-59 106-193 324-193 279 0 474 222 474 576 0 356-194 580-473 580-213 0-288-135-325-197h-14v591H158zm492-555c209 0 317-186 317-421 0-232-105-413-317-413-206 0-314 166-314 413 0 249 111 421 314 421" id="ab"/><g id="e"><use transform="matrix(0.010850694444444444,0,0,0.010850694444444444,0,0)" xlink:href="#X"/><use transform="matrix(0.010850694444444444,0,0,0.010850694444444444,12.684461805555555,0)" xlink:href="#O"/><use transform="matrix(0.010850694444444444,0,0,0.010850694444444444,24.837239583333332,0)" xlink:href="#Y"/><use transform="matrix(0.010850694444444444,0,0,0.010850694444444444,37.21788194444444,0)" xlink:href="#O"/><use transform="matrix(0.010850694444444444,0,0,0.010850694444444444,49.69618055555556,0)" xlink:href="#Z"/><use transform="matrix(0.010850694444444444,0,0,0.010850694444444444,61.42578125,0)" xlink:href="#aa"/><use transform="matrix(0.010850694444444444,0,0,0.010850694444444444,74.12109375,0)" xlink:href="#Q"/><use transform="matrix(0.010850694444444444,0,0,0.010850694444444444,82.8342013888889,0)" xlink:href="#J"/><use transform="matrix(0.010850694444444444,0,0,0.010850694444444444,88.21614583333334,0)" xlink:href="#ab"/><use transform="matrix(0.010850694444444444,0,0,0.010850694444444444,101.82291666666666,0)" xlink:href="#M"/></g><path d="M763 24c-353 0-583-224-583-531v-983h190v968c0 214 149 370 393 370 243 0 391-156 391-370v-968h190v983c0 307-230 531-581 531" id="ac"/><path d="M370-1490V0H180v-1490h190" id="ad"/><path d="M96 279C273-86 346-350 346-607c0-292-95-659-250-974h175c150 246 258 650 258 974 0 297-91 602-258 886H96" id="ae"/><g id="f"><use transform="matrix(0.010850694444444444,0,0,0.010850694444444444,0,0)" xlink:href="#ac"/><use transform="matrix(0.010850694444444444,0,0,0.010850694444444444,16.536458333333332,0)" xlink:href="#ad"/><use transform="matrix(0.010850694444444444,0,0,0.010850694444444444,22.50434027777778,0)" xlink:href="#ae"/></g><path d="M458 0L52-1490h194c108 439 233 855 324 1313 92-459 221-873 331-1313h216c110 438 234 854 330 1307 92-455 216-869 323-1307h196L1558 0h-221l-256-944c-26-95-50-200-73-331-22 122-44 223-73 331L680 0H458" id="af"/><path d="M677 24c-213 0-288-135-325-197h-20V0H158v-1490h180v551h14c37-59 106-193 324-193 279 0 474 222 474 576 0 356-194 580-473 580zm-27-161c209 0 317-186 317-421 0-232-105-413-317-413-206 0-314 166-314 413 0 249 111 421 314 421" id="ag"/><g id="g"><use transform="matrix(0.010850694444444444,0,0,0.010850694444444444,0,0)" xlink:href="#af"/><use transform="matrix(0.010850694444444444,0,0,0.010850694444444444,20.768229166666668,0)" xlink:href="#K"/><use transform="matrix(0.010850694444444444,0,0,0.010850694444444444,33.723958333333336,0)" xlink:href="#ag"/></g><path d="M180 0v-1490h528c311 0 458 177 458 395 0 191-114 278-244 313v14c139 9 302 137 302 371 0 225-148 397-499 397H180zm190-168h350c232 0 321-102 321-231 0-149-120-277-311-277H370v508zm0-668h328c160 0 286-101 286-255 0-129-87-231-280-231H370v486" id="ah"/><path d="M613 24c-304 0-509-231-509-576 0-350 205-580 509-580 305 0 511 230 511 580 0 345-206 576-511 576zm0-161c226 0 329-195 329-415 0-222-103-419-329-419-223 0-326 196-326 419 0 220 103 415 326 415" id="ai"/><path d="M409 0L70-1118h191c89 329 165 560 243 925 75-353 154-601 240-925h192c85 325 161 564 235 922 77-354 157-598 244-922h191L1267 0h-179c-86-307-176-590-250-913C763-588 675-308 588 0H409" id="aj"/><g id="h"><use transform="matrix(0.010850694444444444,0,0,0.010850694444444444,0,0)" xlink:href="#ah"/><use transform="matrix(0.010850694444444444,0,0,0.010850694444444444,14.539930555555555,0)" xlink:href="#Q"/><use transform="matrix(0.010850694444444444,0,0,0.010850694444444444,22.53689236111111,0)" xlink:href="#ai"/><use transform="matrix(0.010850694444444444,0,0,0.010850694444444444,35.46006944444444,0)" xlink:href="#aj"/><use transform="matrix(0.010850694444444444,0,0,0.010850694444444444,53.64583333333333,0)" xlink:href="#Z"/><use transform="matrix(0.010850694444444444,0,0,0.010850694444444444,65.37543402777777,0)" xlink:href="#K"/><use transform="matrix(0.010850694444444444,0,0,0.010850694444444444,78.33116319444444,0)" xlink:href="#Q"/></g><g id="i"><use transform="matrix(0.010850694444444444,0,0,0.010850694444444444,0,0)" xlink:href="#U"/><use transform="matrix(0.010850694444444444,0,0,0.010850694444444444,20.07378472222222,0)" xlink:href="#ai"/><use transform="matrix(0.010850694444444444,0,0,0.010850694444444444,33.3984375,0)" xlink:href="#ag"/><use transform="matrix(0.010850694444444444,0,0,0.010850694444444444,47.00520833333333,0)" xlink:href="#J"/><use transform="matrix(0.010850694444444444,0,0,0.010850694444444444,52.38715277777778,0)" xlink:href="#I"/><use transform="matrix(0.010850694444444444,0,0,0.010850694444444444,57.76909722222221,0)" xlink:href="#K"/></g><path d="M52 0l541-1490h220L1361 0h-200l-149-416H398L254 0H52zm404-582h497c-103-290-145-390-251-756-108 377-145 460-246 756" id="ak"/><g id="j"><use transform="matrix(0.010850694444444444,0,0,0.010850694444444444,0,0)" xlink:href="#ak"/><use transform="matrix(0.010850694444444444,0,0,0.010850694444444444,15.33203125,0)" xlink:href="#ab"/><use transform="matrix(0.010850694444444444,0,0,0.010850694444444444,28.938802083333332,0)" xlink:href="#ab"/></g><path d="M577 24c-279 0-473-224-473-580 0-354 195-576 474-576 218 0 287 134 324 193h14v-551h180V0H922v-173h-20C865-111 790 24 577 24zm27-161c203 0 314-172 314-421 0-247-108-413-314-413-212 0-317 181-317 413 0 235 108 421 317 421" id="al"/><path d="M158 0v-1118h175l1 205c55-151 181-225 313-225 147 0 245 90 285 228 53-141 190-228 352-228 194 0 352 125 352 384V0h-181v-749c0-161-105-225-225-225-151 0-243 103-243 244V0H807v-767c0-124-93-207-219-207-131 0-250 92-250 270V0H158" id="am"/><g id="k"><use transform="matrix(0.010850694444444444,0,0,0.010850694444444444,0,0)" xlink:href="#ak"/><use transform="matrix(0.010850694444444444,0,0,0.010850694444444444,15.33203125,0)" xlink:href="#al"/><use transform="matrix(0.010850694444444444,0,0,0.010850694444444444,28.938802083333332,0)" xlink:href="#am"/><use transform="matrix(0.010850694444444444,0,0,0.010850694444444444,48.404947916666664,0)" xlink:href="#J"/><use transform="matrix(0.010850694444444444,0,0,0.010850694444444444,53.78689236111111,0)" xlink:href="#L"/></g><g id="l"><use transform="matrix(0.010850694444444444,0,0,0.010850694444444444,0,0)" xlink:href="#U"/><use transform="matrix(0.010850694444444444,0,0,0.010850694444444444,20.07378472222222,0)" xlink:href="#K"/><use transform="matrix(0.010850694444444444,0,0,0.010850694444444444,33.24652777777778,0)" xlink:href="#O"/><use transform="matrix(0.010850694444444444,0,0,0.010850694444444444,45.724826388888886,0)" xlink:href="#I"/></g><path d="M180 0v-1490h510c348 0 508 209 508 474 0 266-160 477-507 477H370V0H180zm190-706h312c236 0 327-133 327-310 0-176-91-307-329-307H370v617" id="an"/><g id="m"><use transform="matrix(0.010850694444444444,0,0,0.010850694444444444,0,0)" xlink:href="#an"/><use transform="matrix(0.010850694444444444,0,0,0.010850694444444444,14.192708333333332,0)" xlink:href="#I"/><use transform="matrix(0.010850694444444444,0,0,0.010850694444444444,19.57465277777778,0)" xlink:href="#O"/><use transform="matrix(0.010850694444444444,0,0,0.010850694444444444,32.052951388888886,0)" xlink:href="#L"/><use transform="matrix(0.010850694444444444,0,0,0.010850694444444444,45.182291666666664,0)" xlink:href="#L"/><use transform="matrix(0.010850694444444444,0,0,0.010850694444444444,58.31163194444444,0)" xlink:href="#K"/><use transform="matrix(0.010850694444444444,0,0,0.010850694444444444,71.26736111111111,0)" xlink:href="#Q"/></g><g id="n"><use transform="matrix(0.010850694444444444,0,0,0.010850694444444444,0,0)" xlink:href="#af"/><use transform="matrix(0.010850694444444444,0,0,0.010850694444444444,20.768229166666668,0)" xlink:href="#K"/><use transform="matrix(0.010850694444444444,0,0,0.010850694444444444,33.723958333333336,0)" xlink:href="#ag"/></g><path d="M295 13c-75 0-135-60-135-135s60-135 135-135 135 60 135 135S370 13 295 13" id="ao"/><path d="M180 0v-1490h224l606 953c40 63 108 177 176 312-27-437-7-821-13-1265h190V0h-226C860-448 622-778 356-1262c27 476 11 792 15 1262H180" id="ap"/><path d="M180 0v-1490h908v168H370v486h669v168H370v500h727V0H180" id="aq"/><g id="o"><use transform="matrix(0.010850694444444444,0,0,0.010850694444444444,0,0)" xlink:href="#ak"/><use transform="matrix(0.010850694444444444,0,0,0.010850694444444444,15.33203125,0)" xlink:href="#W"/><use transform="matrix(0.010850694444444444,0,0,0.010850694444444444,29.58984375,0)" xlink:href="#an"/><use transform="matrix(0.010850694444444444,0,0,0.010850694444444444,42.90364583333333,0)" xlink:href="#ao"/><use transform="matrix(0.010850694444444444,0,0,0.010850694444444444,49.30555555555556,0)" xlink:href="#ap"/><use transform="matrix(0.010850694444444444,0,0,0.010850694444444444,66.04817708333333,0)" xlink:href="#aq"/><use transform="matrix(0.010850694444444444,0,0,0.010850694444444444,79.40538194444444,0)" xlink:href="#T"/><path fill="#8080ff" d="M-1.1 4.54h95.96v1.52H-1.1z"/></g><path d="M600 0L52-1490h200c166 485 304 806 458 1336 156-533 285-846 449-1336h202L819 0H600" id="ar"/><g id="p"><use transform="matrix(0.010850694444444444,0,0,0.010850694444444444,0,0)" xlink:href="#U"/><use transform="matrix(0.010850694444444444,0,0,0.010850694444444444,20.07378472222222,0)" xlink:href="#ar"/><use transform="matrix(0.010850694444444444,0,0,0.010850694444444444,34.65711805555556,0)" xlink:href="#H"/></g><g id="q"><use transform="matrix(0.010850694444444444,0,0,0.010850694444444444,0,0)" xlink:href="#ak"/><use transform="matrix(0.010850694444444444,0,0,0.010850694444444444,14.898003472222221,0)" xlink:href="#ac"/><use transform="matrix(0.010850694444444444,0,0,0.010850694444444444,31.434461805555554,0)" xlink:href="#T"/><use transform="matrix(0.010850694444444444,0,0,0.010850694444444444,45.77907986111111,0)" xlink:href="#S"/></g><g id="r"><use transform="matrix(0.010850694444444444,0,0,0.010850694444444444,0,0)" xlink:href="#ak"/><use transform="matrix(0.010850694444444444,0,0,0.010850694444444444,15.33203125,0)" xlink:href="#an"/><use transform="matrix(0.010850694444444444,0,0,0.010850694444444444,29.524739583333332,0)" xlink:href="#ad"/></g><path d="M789 20c-398 0-667-293-667-764 0-473 273-766 655-766 315 0 558 198 612 487h-196c-61-191-204-311-415-311-262 0-471 207-471 590 0 380 208 588 482 588 249 0 420-165 425-427H828v-166h572v163c0 370-256 606-611 606" id="as"/><g id="s"><use transform="matrix(0.010850694444444444,0,0,0.010850694444444444,0,0)" xlink:href="#as"/><use transform="matrix(0.010850694444444444,0,0,0.010850694444444444,16.57986111111111,0)" xlink:href="#O"/><use transform="matrix(0.010850694444444444,0,0,0.010850694444444444,29.05815972222222,0)" xlink:href="#M"/><use transform="matrix(0.010850694444444444,0,0,0.010850694444444444,36.11111111111111,0)" xlink:href="#K"/><use transform="matrix(0.010850694444444444,0,0,0.010850694444444444,48.66536458333333,0)" xlink:href="#aj"/><use transform="matrix(0.010850694444444444,0,0,0.010850694444444444,66.85112847222221,0)" xlink:href="#O"/><use transform="matrix(0.010850694444444444,0,0,0.010850694444444444,79.00390625,0)" xlink:href="#P"/></g><g id="t"><use transform="matrix(0.010850694444444444,0,0,0.010850694444444444,0,0)" xlink:href="#an"/><use transform="matrix(0.010850694444444444,0,0,0.010850694444444444,14.192708333333332,0)" xlink:href="#I"/><use transform="matrix(0.010850694444444444,0,0,0.010850694444444444,19.57465277777778,0)" xlink:href="#O"/><use transform="matrix(0.010850694444444444,0,0,0.010850694444444444,32.052951388888886,0)" xlink:href="#L"/></g><g id="u"><use transform="matrix(0.010850694444444444,0,0,0.010850694444444444,0,0)" xlink:href="#ak"/><use transform="matrix(0.010850694444444444,0,0,0.010850694444444444,15.33203125,0)" xlink:href="#an"/><use transform="matrix(0.010850694444444444,0,0,0.010850694444444444,29.524739583333332,0)" xlink:href="#ad"/></g><path d="M180 0v-1490h510c348 0 508 194 508 460 0 198-88 351-276 417L1256 0h-220L726-579c-117 2-238 0-356 1V0H180zm190-747h312c235 0 327-108 327-283 0-177-92-293-329-293H370v576" id="at"/><g id="v"><use transform="matrix(0.010850694444444444,0,0,0.010850694444444444,0,0)" xlink:href="#at"/><use transform="matrix(0.010850694444444444,0,0,0.010850694444444444,13.975694444444445,0)" xlink:href="#K"/><use transform="matrix(0.010850694444444444,0,0,0.010850694444444444,26.931423611111104,0)" xlink:href="#aa"/><use transform="matrix(0.010850694444444444,0,0,0.010850694444444444,39.62673611111111,0)" xlink:href="#J"/><use transform="matrix(0.010850694444444444,0,0,0.010850694444444444,45.00868055555556,0)" xlink:href="#ab"/><use transform="matrix(0.010850694444444444,0,0,0.010850694444444444,58.615451388888886,0)" xlink:href="#J"/><use transform="matrix(0.010850694444444444,0,0,0.010850694444444444,63.99739583333333,0)" xlink:href="#K"/><use transform="matrix(0.010850694444444444,0,0,0.010850694444444444,76.953125,0)" xlink:href="#Z"/></g><g id="w"><use transform="matrix(0.010850694444444444,0,0,0.010850694444444444,0,0)" xlink:href="#ak"/><use transform="matrix(0.010850694444444444,0,0,0.010850694444444444,14.898003472222221,0)" xlink:href="#ac"/><use transform="matrix(0.010850694444444444,0,0,0.010850694444444444,31.434461805555554,0)" xlink:href="#T"/><use transform="matrix(0.010850694444444444,0,0,0.010850694444444444,45.77907986111111,0)" xlink:href="#S"/></g><path d="M126 0v-134l627-806v-11H146v-167h839v143L376-178v11h629V0H126" id="au"/><path d="M537 14c-226 0-379-139-379-422v-710h180v695c0 172 97 275 253 275 160 0 281-109 281-300v-670h181V0H879v-209C806-46 684 14 537 14" id="av"/><g id="x"><use transform="matrix(0.010850694444444444,0,0,0.010850694444444444,0,0)" xlink:href="#ak"/><use transform="matrix(0.010850694444444444,0,0,0.010850694444444444,15.33203125,0)" xlink:href="#au"/><use transform="matrix(0.010850694444444444,0,0,0.010850694444444444,27.604166666666664,0)" xlink:href="#av"/><use transform="matrix(0.010850694444444444,0,0,0.010850694444444444,40.744357638888886,0)" xlink:href="#Q"/><use transform="matrix(0.010850694444444444,0,0,0.010850694444444444,48.741319444444436,0)" xlink:href="#K"/></g><g id="y"><use transform="matrix(0.010850694444444444,0,0,0.010850694444444444,0,0)" xlink:href="#W"/><use transform="matrix(0.010850694444444444,0,0,0.010850694444444444,14.2578125,0)" xlink:href="#K"/><use transform="matrix(0.010850694444444444,0,0,0.010850694444444444,27.213541666666664,0)" xlink:href="#Q"/><use transform="matrix(0.010850694444444444,0,0,0.010850694444444444,35.92664930555555,0)" xlink:href="#Y"/><use transform="matrix(0.010850694444444444,0,0,0.010850694444444444,48.41579861111111,0)" xlink:href="#J"/><use transform="matrix(0.010850694444444444,0,0,0.010850694444444444,53.79774305555556,0)" xlink:href="#aa"/><use transform="matrix(0.010850694444444444,0,0,0.010850694444444444,66.49305555555554,0)" xlink:href="#K"/><use transform="matrix(0.010850694444444444,0,0,0.010850694444444444,79.44878472222221,0)" xlink:href="#Z"/></g><g id="z"><use transform="matrix(0.010850694444444444,0,0,0.010850694444444444,0,0)" xlink:href="#ak"/><use transform="matrix(0.010850694444444444,0,0,0.010850694444444444,15.33203125,0)" xlink:href="#ab"/><use transform="matrix(0.010850694444444444,0,0,0.010850694444444444,28.938802083333332,0)" xlink:href="#ab"/></g><path d="M784 20c-382 0-662-292-662-764 0-473 280-766 662-766s660 293 660 766c0 282-99 499-260 629l192 255h-198L1049-33C969 2 880 20 784 20zm-62-486h198l156 205c112-98 183-261 183-483 0-383-209-590-475-590-268 0-477 208-477 590 0 380 209 588 477 588 54 0 106-9 154-25" id="aw"/><g id="A"><use transform="matrix(0.010850694444444444,0,0,0.010850694444444444,0,0)" xlink:href="#W"/><use transform="matrix(0.010850694444444444,0,0,0.010850694444444444,14.2578125,0)" xlink:href="#aw"/><use transform="matrix(0.010850694444444444,0,0,0.010850694444444444,31.25,0)" xlink:href="#N"/></g><path d="M645 0H180v-1490h484c435 0 692 280 692 742 0 466-257 748-711 748zM370-168h263c363 0 539-218 539-580 0-358-176-574-521-574H370v1154" id="ax"/><g id="B"><use transform="matrix(0.010850694444444444,0,0,0.010850694444444444,0,0)" xlink:href="#ax"/><use transform="matrix(0.010850694444444444,0,0,0.010850694444444444,16.03732638888889,0)" xlink:href="#O"/><use transform="matrix(0.010850694444444444,0,0,0.010850694444444444,28.515625,0)" xlink:href="#M"/><use transform="matrix(0.010850694444444444,0,0,0.010850694444444444,35.89409722222222,0)" xlink:href="#O"/><use transform="matrix(0.010850694444444444,0,0,0.010850694444444444,48.37239583333333,0)" xlink:href="#ag"/><use transform="matrix(0.010850694444444444,0,0,0.010850694444444444,62.19618055555554,0)" xlink:href="#O"/><use transform="matrix(0.010850694444444444,0,0,0.010850694444444444,74.67447916666666,0)" xlink:href="#Z"/><use transform="matrix(0.010850694444444444,0,0,0.010850694444444444,86.4040798611111,0)" xlink:href="#K"/></g><path d="M65 0l393-574-370-544h210c88 136 192 297 267 435 67-142 176-302 264-435h206L661-564 1053 0H844c-94-144-206-310-287-458C484-308 366-142 273 0H65" id="ay"/><g id="C"><use transform="matrix(0.010850694444444444,0,0,0.010850694444444444,0,0)" xlink:href="#aq"/><use transform="matrix(0.010850694444444444,0,0,0.010850694444444444,13.35720486111111,0)" xlink:href="#ay"/><use transform="matrix(0.010850694444444444,0,0,0.010850694444444444,25.92230902777778,0)" xlink:href="#M"/><use transform="matrix(0.010850694444444444,0,0,0.010850694444444444,32.975260416666664,0)" xlink:href="#K"/><use transform="matrix(0.010850694444444444,0,0,0.010850694444444444,45.93098958333333,0)" xlink:href="#Q"/><use transform="matrix(0.010850694444444444,0,0,0.010850694444444444,54.64409722222221,0)" xlink:href="#L"/><use transform="matrix(0.010850694444444444,0,0,0.010850694444444444,67.77343749999999,0)" xlink:href="#O"/><use transform="matrix(0.010850694444444444,0,0,0.010850694444444444,80.2517361111111,0)" xlink:href="#I"/></g><path d="M232-923l-22-567h194l-22 567H232" id="az"/><g id="D"><use transform="matrix(0.010850694444444444,0,0,0.010850694444444444,0,0)" xlink:href="#ak"/><use transform="matrix(0.010850694444444444,0,0,0.010850694444444444,15.33203125,0)" xlink:href="#an"/><use transform="matrix(0.010850694444444444,0,0,0.010850694444444444,29.524739583333332,0)" xlink:href="#ad"/><use transform="matrix(0.010850694444444444,0,0,0.010850694444444444,35.49262152777778,0)" xlink:href="#az"/><use transform="matrix(0.010850694444444444,0,0,0.010850694444444444,42.154947916666664,0)" xlink:href="#Z"/></g><path d="M611 442c-248 0-391-105-460-228l146-94c47 65 117 165 314 165 178 0 307-82 307-266v-224h-17C863-141 792-18 576-18c-268 0-472-195-472-546 0-346 197-568 476-568 216 0 288 133 326 193h17v-179h175V29c0 289-215 413-487 413zm-5-620c203 0 314-146 314-390 0-237-108-403-314-403-213 0-319 180-319 403 0 230 109 390 319 390" id="aA"/><g id="E"><use transform="matrix(0.010850694444444444,0,0,0.010850694444444444,0,0)" xlink:href="#as"/><use transform="matrix(0.010850694444444444,0,0,0.010850694444444444,16.57986111111111,0)" xlink:href="#ai"/><use transform="matrix(0.010850694444444444,0,0,0.010850694444444444,29.90451388888889,0)" xlink:href="#ai"/><use transform="matrix(0.010850694444444444,0,0,0.010850694444444444,43.229166666666664,0)" xlink:href="#aA"/><use transform="matrix(0.010850694444444444,0,0,0.010850694444444444,56.857638888888886,0)" xlink:href="#I"/><use transform="matrix(0.010850694444444444,0,0,0.010850694444444444,62.23958333333333,0)" xlink:href="#K"/></g><g id="F"><use transform="matrix(0.010850694444444444,0,0,0.010850694444444444,0,0)" xlink:href="#H"/><use transform="matrix(0.010850694444444444,0,0,0.010850694444444444,16.23263888888889,0)" xlink:href="#O"/><use transform="matrix(0.010850694444444444,0,0,0.010850694444444444,28.7109375,0)" xlink:href="#I"/><use transform="matrix(0.010850694444444444,0,0,0.010850694444444444,34.09288194444444,0)" xlink:href="#K"/><use transform="matrix(0.010850694444444444,0,0,0.010850694444444444,47.04861111111111,0)" xlink:href="#L"/><use transform="matrix(0.010850694444444444,0,0,0.010850694444444444,60.177951388888886,0)" xlink:href="#al"/><use transform="matrix(0.010850694444444444,0,0,0.010850694444444444,73.78472222222221,0)" xlink:href="#O"/><use transform="matrix(0.010850694444444444,0,0,0.010850694444444444,86.26302083333333,0)" xlink:href="#Q"/></g><g id="G"><use transform="matrix(0.010850694444444444,0,0,0.010850694444444444,0,0)" xlink:href="#ak"/><use transform="matrix(0.010850694444444444,0,0,0.010850694444444444,15.33203125,0)" xlink:href="#an"/><use transform="matrix(0.010850694444444444,0,0,0.010850694444444444,29.524739583333332,0)" xlink:href="#ad"/></g></defs></g></svg>