<svg xmlns="http://www.w3.org/2000/svg" xmlns:xlink="http://www.w3.org/1999/xlink" xmlns:lucid="lucid" width="1339.56" height="1221"><g transform="translate(-318.8210177951389 40.5)" lucid:page-tab-id=".Q4MUjXso07N"><path d="M0-500h2000v2000H0z" fill="#fff"/><path d="M529.62-32a8 8 0 0 1 8-8H1412a8 8 0 0 1 8 8v1204a8 8 0 0 1-8 8H537.62a8 8 0 0 1-8-8z" stroke="#000" stroke-opacity="0" fill="#edf5ff"/><use xlink:href="#a" transform="matrix(1,0,0,1,537.6214937276677,-32) translate(345.3032552083333 28.02916666666667)"/><use xlink:href="#b" transform="matrix(1,0,0,1,537.6214937276677,-32) translate(421.2673828125 28.02916666666667)"/><path d="M383.27 719.95v-.2A19.75 19.75 0 0 1 403.02 700a19.75 19.75 0 0 1 19.75 19.75 19.75 19.75 0 0 1-19.75 19.75 19.75 19.75 0 0 1-19.75-19.75v-.2" stroke="#333" stroke-width="4" fill="#fff"/><path d="M360 706a6 6 0 0 1 6-6h74.04a6 6 0 0 1 6 6v146a6 6 0 0 1-6 6H366a6 6 0 0 1-6-6z" fill="none"/><path d="M403.02 739.5v55.3l43.02 63.2m-43.02-63.2L360 858m0-98.75h86.04" stroke="#333" stroke-width="4" fill="none"/><use xlink:href="#c" transform="matrix(1,0,0,1,280,858) translate(100.21114908854167 20.22104166666666)"/><path d="M1563.27 978.75v-.2a19.75 19.75 0 0 1 19.75-19.75 19.75 19.75 0 0 1 19.75 19.75 19.75 19.75 0 0 1-19.75 19.75 19.75 19.75 0 0 1-19.75-19.75v-.2" stroke="#333" stroke-width="4" fill="#fff"/><path d="M1540 964.8a6 6 0 0 1 6-6h74.04a6 6 0 0 1 6 6v146a6 6 0 0 1-6 6H1546a6 6 0 0 1-6-6z" fill="none"/><path d="M1583.02 998.3v55.3l43.02 63.2m-43.02-63.2l-43.02 63.2m0-98.75h86.04" stroke="#333" stroke-width="4" fill="none"/><use xlink:href="#d" transform="matrix(1,0,0,1,1460,1116.7992746672408) translate(49.470594618055586 21.743055555555546)"/><use xlink:href="#e" transform="matrix(1,0,0,1,1460,1116.7992746672408) translate(141.38541666666666 21.743055555555546)"/><path d="M406.02 790h20.66m20.67 0h41.33m20.67 0h41.33m20.66 0h41.33m20.67 0h41.33m20.67 0h41.33m20.66 0H778M406.04 790h-4.02" stroke="#333" stroke-width="2" fill="none"/><path d="M779 790v.4l.02.58h-1.05V789h1.06z" stroke="#333" stroke-width=".05" fill="#333"/><path d="M940 790c0 33.14-35.82 60-80 60s-80-26.86-80-60 35.82-60 80-60 80 26.86 80 60z" stroke="#000" stroke-width="2" fill="#6db1ff"/><use xlink:href="#f" transform="matrix(1,0,0,1,804,754) translate(0.10327636718749744 42.089501953125)"/><use xlink:href="#g" transform="matrix(1,0,0,1,804,754) translate(34.6540478515625 42.089501953125)"/><use xlink:href="#h" transform="matrix(1,0,0,1,804,754) translate(77.8609033203125 42.089501953125)"/><path d="M1340 780c0 33.14-35.82 60-80 60s-80-26.86-80-60 35.82-60 80-60 80 26.86 80 60z" stroke="#000" stroke-width="2" fill="#6db1ff"/><use xlink:href="#i" transform="matrix(1,0,0,1,1204,744) translate(6.442080078125002 31.96212890625)"/><use xlink:href="#j" transform="matrix(1,0,0,1,1204,744) translate(32.3326806640625 52.216875)"/><path d="M860 852v18.08m0 18.1v36.15m0 18.08v18.1" stroke="#333" stroke-width="2" fill="none"/><path d="M860 851h.98v1.03H859v-1.06z" stroke="#333" stroke-width=".05" fill="#333"/><path d="M860 975.76l-4.63-14.26h9.26z" stroke="#333" stroke-width="2" fill="#333"/><path d="M940 1040c0 33.14-35.82 60-80 60s-80-26.86-80-60 35.82-60 80-60 80 26.86 80 60z" stroke="#000" stroke-width="2" fill="#6db1ff"/><use xlink:href="#k" transform="matrix(1,0,0,1,804,1004) translate(28.4664599609375 31.96212890625)"/><use xlink:href="#l" transform="matrix(1,0,0,1,804,1004) translate(2.036386718749995 52.216875)"/><use xlink:href="#m" transform="matrix(1,0,0,1,804,1004) translate(82.131728515625 52.216875)"/><path d="M406.02 790h18.83m18.83 0h37.66m18.83 0H519M406.04 790h-4.02M518.97 790H520M405.85 790.56l17.73 11.85m17.73 11.86l35.47 23.7m17.73 11.86l35.46 23.7m17.72 11.85l35.46 23.7m17.73 11.86l35.46 23.7m17.73 11.85l35.46 23.7m17.73 11.86l35.46 23.7m17.74 11.85l17.73 11.84M405.87 790.57l-3.35-2.24" stroke="#333" stroke-width="2" fill="none"/><path d="M779.03 1038.85L779 1040v.4l.03.8-1.42-.96 1.1-1.62z" stroke="#333" stroke-width=".05" fill="#333"/><path d="M942 1040h18.2m18.22 0h36.4m18.22 0h36.42m18.2 0h36.42m18.2 0h18.22" stroke="#333" stroke-width="2" fill="none"/><path d="M942.03 1040.97h-1.06l.03-.96v-.4l-.02-.57h1.05z" stroke="#333" stroke-width=".05" fill="#333"/><path d="M1175.76 1040l-14.26 4.63v-9.27z" stroke="#333" stroke-width="2" fill="#333"/><path d="M1340 1040c0 33.14-35.82 60-80 60s-80-26.86-80-60 35.82-60 80-60 80 26.86 80 60z" stroke="#000" stroke-width="2" fill="#6db1ff"/><use xlink:href="#n" transform="matrix(1,0,0,1,1204,1004) translate(1.0841357421874989 21.834755859375)"/><use xlink:href="#o" transform="matrix(1,0,0,1,1204,1004) translate(36.05177246093751 21.834755859375)"/><use xlink:href="#p" transform="matrix(1,0,0,1,1204,1004) translate(37.539409179687496 42.089501953125)"/><use xlink:href="#l" transform="matrix(1,0,0,1,1204,1004) translate(2.036386718749995 62.344248046875)"/><use xlink:href="#m" transform="matrix(1,0,0,1,1204,1004) translate(82.131728515625 62.344248046875)"/><path d="M1341.93 1042.18l18.38-.37m18.4-.35l36.76-.74m18.38-.36l36.77-.74m18.4-.37l36.76-.74m18.38-.38l18.38-.37" stroke="#333" stroke-width="2" fill="none"/><path d="M1341.98 1043.16l-1.1.02.03-.26.06-1.7h.98z" stroke="#333" stroke-width=".05" fill="#333"/><path d="M1577.78 1037.44l-14.17 4.92-.17-9.26z" stroke="#333" stroke-width="2" fill="#333"/><path d="M383.27 99.95v-.2A19.75 19.75 0 0 1 403.02 80a19.75 19.75 0 0 1 19.75 19.75 19.75 19.75 0 0 1-19.75 19.75 19.75 19.75 0 0 1-19.75-19.75v-.2" stroke="#333" stroke-width="4" fill="#fff"/><path d="M360 86a6 6 0 0 1 6-6h74.04a6 6 0 0 1 6 6v146a6 6 0 0 1-6 6H366a6 6 0 0 1-6-6z" fill="none"/><path d="M403.02 119.5v55.3l43.02 63.2m-43.02-63.2L360 238m0-98.75h86.04" stroke="#333" stroke-width="4" fill="none"/><use xlink:href="#q" transform="matrix(1,0,0,1,280,238) translate(39.821017795138914 21.743055555555546)"/><use xlink:href="#r" transform="matrix(1,0,0,1,280,238) translate(118.42041015625 21.743055555555546)"/><path d="M406.02 170h20.66m20.67 0h41.33m20.67 0h41.33m20.66 0h41.33m20.67 0h41.33m20.67 0h41.33m20.66 0H778M406.04 170h-4.02" stroke="#333" stroke-width="2" fill="none"/><path d="M779 170v.4l.02.57h-1.05v-1.94h1.06z" stroke="#333" stroke-width=".05" fill="#333"/><path d="M940 170c0 33.14-35.82 60-80 60s-80-26.86-80-60 35.82-60 80-60 80 26.86 80 60z" stroke="#000" stroke-width="2" fill="#6db1ff"/><use xlink:href="#s" transform="matrix(1,0,0,1,804,134) translate(10.663862304687491 42.089501953125)"/><use xlink:href="#t" transform="matrix(1,0,0,1,804,134) translate(47.4215673828125 42.089501953125)"/><path d="M977.74 789.43l-18.2.77-.1-1.95 18.2-.77zm31.15-1.3l-12.95.54-.1-1.95 13.04-.55zm132.72-5.58l-30.5 1.28v-1.95l30.42-1.28zm36.42-1.53l-18.2.76-.1-1.95 18.22-.76z" stroke="#333" stroke-width=".05" fill="#333"/><path d="M1179 780v.4l.02.58-1 .04-.1-1.95 1.1-.05z" fill="#333"/><path stroke="#333" stroke-width=".05" fill="#333"/><path d="M958.68 793.9l-14.45-4.04 14.06-5.23z" fill="#333"/><path d="M959.7 795.2L941.1 790l18.13-6.75zm-12.3-5.47l10.25 2.87-.28-6.58z" stroke="#333" stroke-width=".05" fill="#333"/><use xlink:href="#u" transform="matrix(1,0,0,1,1008.8931396484375,774.872626953125) translate(0 16.216875)"/><path d="M405.9 789.54l17.73-9.13m17.73-9.12l35.44-18.25m17.73-9.13l35.45-18.26m17.72-9.13l35.45-18.24m17.72-9.13l35.45-18.26m17.72-9.13l35.45-18.25m17.72-9.14l35.44-18.26m17.73-9.13l17.7-9.12M405.93 789.53l-3.58 1.84" stroke="#333" stroke-width="2" fill="none"/><path d="M779 597.38v.4l.03.7-.5.25-.9-1.74 1.4-.73zM1260.97 700.5h-1.94v-15.2h1.94zm0-30.37h-1.94v-30.37h1.94zm-10.94-73.56l1.98.48 1.9.78 1.73 1.06 1.55 1.3 1.32 1.56 1.06 1.74.78 1.88.48 1.98.15 2v15.2h-1.94v-15.13l-.14-1.77-.42-1.68-.66-1.6-.9-1.47-1.13-1.3-1.32-1.13-1.48-.9-1.6-.66-1.68-.4-1.76-.14h-20.36v-1.95h20.44zm-287.63 1.8H942v-1.96h20.4zm61.2 0h-40.8v-1.96h40.8zm61.2 0H1044v-1.96h40.8zm25.62 0h-5.22v-1.96h5.22z" stroke="#333" stroke-width=".05" fill="#333"/><path d="M942.03 598.36h-1.06l.03-.96v-.4l-.02-.6h1.05z" fill="#333"/><path stroke="#333" stroke-width=".05" fill="#333"/><path d="M1260 715.76l-4.63-14.26h9.27z" fill="#333"/><path d="M1260 718.92l-5.98-18.4h11.96zm-3.3-16.45l3.3 10.14 3.3-10.13z" stroke="#333" stroke-width=".05" fill="#333"/><use xlink:href="#v" transform="matrix(1,0,0,1,1110.4195805505587,587.261131893627) translate(0 16.216875)"/><path d="M405.7 789.28l13.8-14.2m13.8-14.23l27.6-28.43m13.8-14.2l27.6-28.44m13.8-14.2l27.6-28.44m13.8-14.22l27.6-28.42m13.8-14.22l27.6-28.43m13.8-14.2l27.6-28.44m13.8-14.2l27.6-28.43m13.8-14.22l27.6-28.43m13.8-14.2l13.8-14.23M405.73 789.26l-2.8 2.9" stroke="#333" stroke-width="2" fill="none"/><path d="M779 404.76v.42l.04.96-.05.05-1.4-1.37 1.44-1.5z" stroke="#333" stroke-width=".05" fill="#333"/><path d="M940 404.78c0 33.13-35.82 60-80 60s-80-26.87-80-60c0-33.14 35.82-60 80-60s80 26.86 80 60z" stroke="#000" stroke-width="2" fill="#6db1ff"/><g><use xlink:href="#w" transform="matrix(1,0,0,1,804,368.777009881004) translate(24.081201171874998 21.834755859375)"/><use xlink:href="#x" transform="matrix(1,0,0,1,804,368.777009881004) translate(27.587773437499994 42.089501953125)"/><use xlink:href="#y" transform="matrix(1,0,0,1,804,368.777009881004) translate(30.391396484374997 62.344248046875)"/></g><path d="M1260.97 700.5h-1.94v-18.92h1.94zm0-37.83h-1.94v-37.83h1.94zm0-56.75h-1.94V568.1h1.94zm0-56.74h-1.94v-37.83h1.94zm0-56.74h-1.94V454.6h1.94zm0-75.7v18.95h-1.94V416.8l-.14-1.77-.05-.15h1.98zm-298.57-11H942v-1.94h20.4zm61.2 0h-40.8v-1.94h40.8zm61.2 0H1044v-1.94h40.8zm61.2 0h-40.8v-1.94h40.8zm22.53 0h-2.13v-1.94h2.13z" stroke="#333" stroke-width=".05" fill="#333"/><path d="M942.03 405.75h-1.06l.03-.96v-.43l-.02-.57h1.05z" fill="#333"/><path stroke="#333" stroke-width=".05" fill="#333"/><path d="M1260 715.76l-4.63-14.26h9.27z" fill="#333"/><path d="M1260 718.92l-5.98-18.4h11.96zm-3.3-16.45l3.3 10.14 3.3-10.13z" stroke="#333" stroke-width=".05" fill="#333"/><g><use xlink:href="#v" transform="matrix(1,0,0,1,1168.5309245312528,394.649636834129) translate(0 16.216875)"/></g><path d="M940 597.4c0 33.13-35.82 60-80 60s-80-26.87-80-60c0-33.15 35.82-60 80-60s80 26.85 80 60z" stroke="#000" stroke-width="2" fill="#6db1ff"/><g><use xlink:href="#z" transform="matrix(1,0,0,1,804,561.388504940502) translate(9.10674804687499 42.089501953125)"/><use xlink:href="#t" transform="matrix(1,0,0,1,804,561.388504940502) translate(48.978681640625 42.089501953125)"/></g><defs><path d="M135 0v-1490h468l242 684c30 94 76 293 111 455 34-161 80-360 110-455l238-684h470V0h-307c0-447-3-765 11-1227-122 503-246 788-395 1227H826C676-435 552-717 427-1215c15 453 11 775 11 1215H135" id="A"/><path d="M633 22C291 22 81-200 81-553c0-345 210-579 537-579 292 0 525 185 525 567v84H378c7 183 109 277 260 277 105 0 184-46 216-132l272 51C1071-99 893 22 633 22zM380-669h474c-15-146-94-237-233-237-143 0-229 99-241 237" id="B"/><path d="M440 22C227 22 68-92 68-313c0-250 202-322 422-343 195-21 271-24 271-105 0-95-63-149-175-149-116 0-187 57-211 129l-275-46c57-194 237-305 487-305 240 0 474 108 474 379V0H777v-155h-10C713-51 605 22 440 22zm85-211c140 0 238-93 238-211v-121c-37 26-156 42-222 51-111 16-185 59-185 149 0 87 70 132 169 132" id="C"/><path d="M428-1490V0H128v-1490h300" id="D"/><g id="a"><use transform="matrix(0.014127604166666669,0,0,0.014127604166666669,0,0)" xlink:href="#A"/><use transform="matrix(0.014127604166666669,0,0,0.014127604166666669,26.955468750000005,0)" xlink:href="#B"/><use transform="matrix(0.014127604166666669,0,0,0.014127604166666669,44.47369791666667,0)" xlink:href="#C"/><use transform="matrix(0.014127604166666669,0,0,0.014127604166666669,61.27141927083334,0)" xlink:href="#D"/></g><path d="M135 0v-1490h581c339 0 533 210 533 503 0 295-197 500-540 500H440V0H135zm305-733h220c186 0 274-104 274-254s-88-251-275-251H440v505" id="E"/><path d="M428-647V0H128v-1118h283l4 231c63-156 176-245 348-245 232 0 384 159 384 421V0H847v-659c0-139-76-222-202-222-128 0-217 86-217 234" id="F"/><path d="M128 0v-1118h290v195h12c54-169 184-238 367-200v268c-27-8-86-15-130-15-138 0-239 95-239 234V0H128" id="G"/><g id="b"><use transform="matrix(0.014127604166666669,0,0,0.014127604166666669,0,0)" xlink:href="#E"/><use transform="matrix(0.014127604166666669,0,0,0.014127604166666669,18.74733072916667,0)" xlink:href="#D"/><use transform="matrix(0.014127604166666669,0,0,0.014127604166666669,26.58815104166667,0)" xlink:href="#C"/><use transform="matrix(0.014127604166666669,0,0,0.014127604166666669,43.38587239583334,0)" xlink:href="#F"/><use transform="matrix(0.014127604166666669,0,0,0.014127604166666669,61.39856770833334,0)" xlink:href="#F"/><use transform="matrix(0.014127604166666669,0,0,0.014127604166666669,79.41126302083335,0)" xlink:href="#B"/><use transform="matrix(0.014127604166666669,0,0,0.014127604166666669,96.64694010416667,0)" xlink:href="#G"/></g><path d="M763 24c-353 0-583-224-583-531v-983h190v968c0 214 149 370 393 370 243 0 391-156 391-370v-968h190v983c0 307-230 531-581 531" id="H"/><path d="M538 24C308 24 148-78 108-271l171-41c32 123 123 178 257 178 156 0 256-77 256-169 0-77-54-128-164-154l-186-44c-203-48-300-148-300-305 0-192 176-326 414-326 230 0 351 112 402 269l-163 42c-31-80-94-158-238-158-133 0-233 69-233 162 0 83 57 129 188 160l169 40c203 48 298 149 298 302 0 196-179 339-441 339" id="I"/><path d="M628 24c-324 0-524-230-524-574 0-343 198-582 503-582 237 0 487 146 487 559v75H286c9 234 145 362 343 362 132 0 231-58 273-172l174 48C1024-91 857 24 628 24zM287-650h624c-17-190-120-322-304-322-192 0-309 151-320 322" id="J"/><path d="M158 0v-1118h174v172h12c41-113 157-188 290-188 26 0 70 2 91 3v181c-11-2-60-10-108-10-161 0-279 109-279 260V0H158" id="K"/><g id="c"><use transform="matrix(0.010192057291666664,0,0,0.010192057291666664,0,0)" xlink:href="#H"/><use transform="matrix(0.010192057291666664,0,0,0.010192057291666664,15.532695312499996,0)" xlink:href="#I"/><use transform="matrix(0.010192057291666664,0,0,0.010192057291666664,26.55030924479166,0)" xlink:href="#J"/><use transform="matrix(0.010192057291666664,0,0,0.010192057291666664,38.71962565104165,0)" xlink:href="#K"/></g><path d="M789 20c-398 0-667-293-667-764 0-473 273-766 655-766 315 0 558 198 612 487h-196c-61-191-204-311-415-311-262 0-471 207-471 590 0 380 208 588 482 588 249 0 420-165 425-427H828v-166h572v163c0 370-256 606-611 606" id="L"/><path d="M613 24c-304 0-509-231-509-576 0-350 205-580 509-580 305 0 511 230 511 580 0 345-206 576-511 576zm0-161c226 0 329-195 329-415 0-222-103-419-329-419-223 0-326 196-326 419 0 220 103 415 326 415" id="M"/><path d="M613 24c-304 0-509-231-509-576 0-350 205-580 509-580 216 0 392 114 453 309l-173 49c-33-115-133-197-280-197-223 0-326 196-326 419 0 220 103 415 326 415 150 0 252-85 285-206l172 49C1010-95 832 24 613 24" id="N"/><path d="M140 405l46-156c120 36 205 19 263-150l32-93L54-1118h197c107 313 237 620 324 950 87-331 219-637 326-950h196L606 167c-68 178-176 259-334 259-64 0-113-12-132-21" id="O"/><g id="d"><use transform="matrix(0.010959201388888885,0,0,0.010959201388888885,0,0)" xlink:href="#L"/><use transform="matrix(0.010959201388888885,0,0,0.010959201388888885,16.745659722222214,0)" xlink:href="#K"/><use transform="matrix(0.010959201388888885,0,0,0.010959201388888885,24.822591145833325,0)" xlink:href="#M"/><use transform="matrix(0.010959201388888885,0,0,0.010959201388888885,38.28049045138887,0)" xlink:href="#N"/><use transform="matrix(0.010959201388888885,0,0,0.010959201388888885,51.10275607638887,0)" xlink:href="#J"/><use transform="matrix(0.010959201388888885,0,0,0.010959201388888885,64.1880425347222,0)" xlink:href="#K"/><use transform="matrix(0.010959201388888885,0,0,0.010959201388888885,72.98828124999997,0)" xlink:href="#O"/></g><path d="M657 26c-323 0-524-166-541-416h195c15 169 171 246 346 246 202 0 356-106 356-265 5-203-294-238-475-293-239-73-380-191-380-389 0-252 224-419 512-419 294 0 499 171 508 396H992c-17-145-151-228-328-228-193 0-321 102-321 242 0 156 175 211 284 241l149 41c160 44 422 134 422 412 0 244-197 432-541 432" id="P"/><path d="M598-1118v154H368v674c0 100 37 144 132 144 23 0 62-6 92-12L629-6c-37 13-88 20-134 20-193 0-307-107-307-290v-688H20v-154h168v-266h180v266h230" id="Q"/><g id="e"><use transform="matrix(0.010959201388888885,0,0,0.010959201388888885,0,0)" xlink:href="#P"/><use transform="matrix(0.010959201388888885,0,0,0.010959201388888885,14.400390624999995,0)" xlink:href="#Q"/><use transform="matrix(0.010959201388888885,0,0,0.010959201388888885,21.52387152777777,0)" xlink:href="#M"/><use transform="matrix(0.010959201388888885,0,0,0.010959201388888885,34.98177083333332,0)" xlink:href="#K"/><use transform="matrix(0.010959201388888885,0,0,0.010959201388888885,43.05870225694443,0)" xlink:href="#J"/></g><path d="M180 0v-1490h908v168H370v486h669v168H370v500h727V0H180" id="R"/><path d="M577 24c-279 0-473-224-473-580 0-354 195-576 474-576 218 0 287 134 324 193h14v-551h180V0H922v-173h-20C865-111 790 24 577 24zm27-161c203 0 314-172 314-421 0-247-108-413-314-413-212 0-317 181-317 413 0 235 108 421 317 421" id="S"/><path d="M158 0v-1118h180V0H158zm91-1301c-68 0-125-53-125-119s57-119 125-119c69 0 126 53 126 119s-57 119-126 119" id="T"/><g id="f"><use transform="matrix(0.008173828125000001,0,0,0.008173828125000001,0,0)" xlink:href="#R"/><use transform="matrix(0.008173828125000001,0,0,0.008173828125000001,10.061982421875001,0)" xlink:href="#S"/><use transform="matrix(0.008173828125000001,0,0,0.008173828125000001,20.311962890625,0)" xlink:href="#T"/><use transform="matrix(0.008173828125000001,0,0,0.008173828125000001,24.366181640625,0)" xlink:href="#Q"/></g><path d="M180 0v-1490h270l367 940c28 72 75 218 110 339 35-117 81-264 110-339l362-940h271V0h-187c2-448-5-837 7-1287-157 497-311 829-483 1287H842C666-458 514-784 354-1284c12 438 5 843 7 1284H180" id="U"/><path d="M471 26C259 26 90-98 90-318c0-256 228-303 435-329 202-27 287-16 287-108 0-139-79-219-234-219-161 0-248 86-283 164l-173-57c86-203 278-265 451-265 150 0 419 46 419 395V0H815v-152h-12C765-73 660 26 471 26zm31-159c199 0 310-134 310-271v-155c-30 35-226 55-295 64-131 17-246 59-246 186 0 116 97 176 231 176" id="V"/><path d="M338-1490V0H158v-1490h180" id="W"/><g id="g"><use transform="matrix(0.008173828125000001,0,0,0.008173828125000001,0,0)" xlink:href="#U"/><use transform="matrix(0.008173828125000001,0,0,0.008173828125000001,15.121582031250002,0)" xlink:href="#J"/><use transform="matrix(0.008173828125000001,0,0,0.008173828125000001,25.044609375,0)" xlink:href="#V"/><use transform="matrix(0.008173828125000001,0,0,0.008173828125000001,34.44451171874999,0)" xlink:href="#W"/></g><path d="M180 0v-1490h510c348 0 508 209 508 474 0 266-160 477-507 477H370V0H180zm190-706h312c236 0 327-133 327-310 0-176-91-307-329-307H370v617" id="X"/><path d="M338-670V0H158v-1118h173l1 207c72-158 192-221 342-221 226 0 378 139 378 422V0H872v-695c0-172-96-275-252-275-161 0-282 109-282 300" id="Y"/><g id="h"><use transform="matrix(0.008173828125000001,0,0,0.008173828125000001,0,0)" xlink:href="#X"/><use transform="matrix(0.008173828125000001,0,0,0.008173828125000001,10.691367187500001,0)" xlink:href="#W"/><use transform="matrix(0.008173828125000001,0,0,0.008173828125000001,14.745585937500001,0)" xlink:href="#V"/><use transform="matrix(0.008173828125000001,0,0,0.008173828125000001,24.145488281250003,0)" xlink:href="#Y"/></g><path d="M180 0v-1490h510c348 0 508 194 508 460 0 198-88 351-276 417L1256 0h-220L726-579c-117 2-238 0-356 1V0H180zm190-747h312c235 0 327-108 327-283 0-177-92-293-329-293H370v576" id="Z"/><path d="M158 0v-1118h175l1 205c55-151 181-225 313-225 147 0 245 90 285 228 53-141 190-228 352-228 194 0 352 125 352 384V0h-181v-749c0-161-105-225-225-225-151 0-243 103-243 244V0H807v-767c0-124-93-207-219-207-131 0-250 92-250 270V0H158" id="aa"/><g id="i"><use transform="matrix(0.008173828125000001,0,0,0.008173828125000001,0,0)" xlink:href="#Z"/><use transform="matrix(0.008173828125000001,0,0,0.008173828125000001,10.527890625000001,0)" xlink:href="#J"/><use transform="matrix(0.008173828125000001,0,0,0.008173828125000001,20.287441406250004,0)" xlink:href="#N"/><use transform="matrix(0.008173828125000001,0,0,0.008173828125000001,29.850820312500005,0)" xlink:href="#M"/><use transform="matrix(0.008173828125000001,0,0,0.008173828125000001,39.888281250000006,0)" xlink:href="#aa"/><use transform="matrix(0.008173828125000001,0,0,0.008173828125000001,54.552128906250005,0)" xlink:href="#aa"/><use transform="matrix(0.008173828125000001,0,0,0.008173828125000001,69.2159765625,0)" xlink:href="#J"/><use transform="matrix(0.008173828125000001,0,0,0.008173828125000001,78.97552734375002,0)" xlink:href="#Y"/><use transform="matrix(0.008173828125000001,0,0,0.008173828125000001,88.865859375,0)" xlink:href="#S"/></g><g id="j"><use transform="matrix(0.008173828125000001,0,0,0.008173828125000001,0,0)" xlink:href="#U"/><use transform="matrix(0.008173828125000001,0,0,0.008173828125000001,15.121582031250002,0)" xlink:href="#J"/><use transform="matrix(0.008173828125000001,0,0,0.008173828125000001,25.044609375,0)" xlink:href="#V"/><use transform="matrix(0.008173828125000001,0,0,0.008173828125000001,34.44451171874999,0)" xlink:href="#W"/><use transform="matrix(0.008173828125000001,0,0,0.008173828125000001,38.49873046875,0)" xlink:href="#I"/></g><path d="M678-1118v154H420V0H240v-964H20v-154h220v-149c0-194 155-293 318-293 85 0 141 18 168 30l-50 154c-19-6-47-17-97-17-111 0-159 58-159 166v109h258" id="ab"/><g id="k"><use transform="matrix(0.008173828125000001,0,0,0.008173828125000001,0,0)" xlink:href="#U"/><use transform="matrix(0.008173828125000001,0,0,0.008173828125000001,15.121582031250002,0)" xlink:href="#M"/><use transform="matrix(0.008173828125000001,0,0,0.008173828125000001,25.15904296875,0)" xlink:href="#S"/><use transform="matrix(0.008173828125000001,0,0,0.008173828125000001,35.409023437500004,0)" xlink:href="#T"/><use transform="matrix(0.008173828125000001,0,0,0.008173828125000001,39.4632421875,0)" xlink:href="#ab"/><use transform="matrix(0.008173828125000001,0,0,0.008173828125000001,45.65900390625,0)" xlink:href="#O"/></g><path d="M338-670V0H158v-1490h180v566c73-149 190-208 336-208 226 0 379 139 379 422V0H872v-695c0-172-96-275-252-275-161 0-282 109-282 300" id="ac"/><path d="M158 418v-1536h174v179h20c37-59 106-193 324-193 279 0 474 222 474 576 0 356-194 580-473 580-213 0-288-135-325-197h-14v591H158zm492-555c209 0 317-186 317-421 0-232-105-413-317-413-206 0-314 166-314 413 0 249 111 421 314 421" id="ad"/><path d="M611 442c-248 0-391-105-460-228l146-94c47 65 117 165 314 165 178 0 307-82 307-266v-224h-17C863-141 792-18 576-18c-268 0-472-195-472-546 0-346 197-568 476-568 216 0 288 133 326 193h17v-179h175V29c0 289-215 413-487 413zm-5-620c203 0 314-146 314-390 0-237-108-403-314-403-213 0-319 180-319 403 0 230 109 390 319 390" id="ae"/><g id="l"><use transform="matrix(0.008173828125000001,0,0,0.008173828125000001,0,0)" xlink:href="#P"/><use transform="matrix(0.008173828125000001,0,0,0.008173828125000001,10.740410156250002,0)" xlink:href="#ac"/><use transform="matrix(0.008173828125000001,0,0,0.008173828125000001,20.638916015625004,0)" xlink:href="#M"/><use transform="matrix(0.008173828125000001,0,0,0.008173828125000001,30.676376953125004,0)" xlink:href="#ad"/><use transform="matrix(0.008173828125000001,0,0,0.008173828125000001,40.926357421875004,0)" xlink:href="#ad"/><use transform="matrix(0.008173828125000001,0,0,0.008173828125000001,51.17633789062501,0)" xlink:href="#T"/><use transform="matrix(0.008173828125000001,0,0,0.008173828125000001,55.23055664062501,0)" xlink:href="#Y"/><use transform="matrix(0.008173828125000001,0,0,0.008173828125000001,65.12088867187501,0)" xlink:href="#ae"/></g><path d="M180 0v-1490h190v1322h690V0H180" id="af"/><g id="m"><use transform="matrix(0.008173828125000001,0,0,0.008173828125000001,0,0)" xlink:href="#af"/><use transform="matrix(0.008173828125000001,0,0,0.008173828125000001,9.465292968750001,0)" xlink:href="#T"/><use transform="matrix(0.008173828125000001,0,0,0.008173828125000001,13.519511718750001,0)" xlink:href="#I"/><use transform="matrix(0.008173828125000001,0,0,0.008173828125000001,22.355419921875004,0)" xlink:href="#Q"/></g><path d="M180 0v-1490h528c311 0 458 177 458 395 0 191-114 278-244 313v14c139 9 302 137 302 371 0 225-148 397-499 397H180zm190-168h350c232 0 321-102 321-231 0-149-120-277-311-277H370v508zm0-668h328c160 0 286-101 286-255 0-129-87-231-280-231H370v486" id="ag"/><path d="M537 14c-226 0-379-139-379-422v-710h180v695c0 172 97 275 253 275 160 0 281-109 281-300v-670h181V0H879v-209C806-46 684 14 537 14" id="ah"/><g id="n"><use transform="matrix(0.008173828125000001,0,0,0.008173828125000001,0,0)" xlink:href="#ag"/><use transform="matrix(0.008173828125000001,0,0,0.008173828125000001,10.952929687500001,0)" xlink:href="#ah"/><use transform="matrix(0.008173828125000001,0,0,0.008173828125000001,20.851435546875003,0)" xlink:href="#O"/></g><g id="o"><use transform="matrix(0.008173828125000001,0,0,0.008173828125000001,0,0)" xlink:href="#ae"/><use transform="matrix(0.008173828125000001,0,0,0.008173828125000001,10.266328125000001,0)" xlink:href="#K"/><use transform="matrix(0.008173828125000001,0,0,0.008173828125000001,16.290439453125003,0)" xlink:href="#M"/><use transform="matrix(0.008173828125000001,0,0,0.008173828125000001,26.327900390625004,0)" xlink:href="#N"/><use transform="matrix(0.008173828125000001,0,0,0.008173828125000001,35.891279296875005,0)" xlink:href="#J"/><use transform="matrix(0.008173828125000001,0,0,0.008173828125000001,45.650830078125004,0)" xlink:href="#K"/><use transform="matrix(0.008173828125000001,0,0,0.008173828125000001,52.2144140625,0)" xlink:href="#T"/><use transform="matrix(0.008173828125000001,0,0,0.008173828125000001,56.2686328125,0)" xlink:href="#J"/><use transform="matrix(0.008173828125000001,0,0,0.008173828125000001,66.02818359375,0)" xlink:href="#I"/></g><g id="p"><use transform="matrix(0.008173828125000001,0,0,0.008173828125000001,0,0)" xlink:href="#ab"/><use transform="matrix(0.008173828125000001,0,0,0.008173828125000001,6.195761718750001,0)" xlink:href="#K"/><use transform="matrix(0.008173828125000001,0,0,0.008173828125000001,12.219873046875001,0)" xlink:href="#M"/><use transform="matrix(0.008173828125000001,0,0,0.008173828125000001,22.257333984375002,0)" xlink:href="#aa"/></g><g id="q"><use transform="matrix(0.010959201388888885,0,0,0.010959201388888885,0,0)" xlink:href="#Z"/><use transform="matrix(0.010959201388888885,0,0,0.010959201388888885,14.115451388888884,0)" xlink:href="#J"/><use transform="matrix(0.010959201388888885,0,0,0.010959201388888885,27.200737847222218,0)" xlink:href="#N"/><use transform="matrix(0.010959201388888885,0,0,0.010959201388888885,40.02300347222221,0)" xlink:href="#T"/><use transform="matrix(0.010959201388888885,0,0,0.010959201388888885,45.45876736111109,0)" xlink:href="#ad"/><use transform="matrix(0.010959201388888885,0,0,0.010959201388888885,59.20160590277776,0)" xlink:href="#J"/></g><path d="M481 0L54-1118h197c107 314 236 620 325 951 87-331 217-637 324-951h197L670 0H481" id="ai"/><g id="r"><use transform="matrix(0.010959201388888885,0,0,0.010959201388888885,0,0)" xlink:href="#X"/><use transform="matrix(0.010959201388888885,0,0,0.010959201388888885,14.33463541666666,0)" xlink:href="#K"/><use transform="matrix(0.010959201388888885,0,0,0.010959201388888885,22.41156684027777,0)" xlink:href="#M"/><use transform="matrix(0.010959201388888885,0,0,0.010959201388888885,35.431098090277764,0)" xlink:href="#ai"/><use transform="matrix(0.010959201388888885,0,0,0.010959201388888885,48.04513888888887,0)" xlink:href="#T"/><use transform="matrix(0.010959201388888885,0,0,0.010959201388888885,53.48090277777776,0)" xlink:href="#S"/><use transform="matrix(0.010959201388888885,0,0,0.010959201388888885,67.22374131944441,0)" xlink:href="#J"/><use transform="matrix(0.010959201388888885,0,0,0.010959201388888885,80.30902777777774,0)" xlink:href="#K"/></g><path d="M52 0l541-1490h220L1361 0h-200l-149-416H398L254 0H52zm404-582h497c-103-290-145-390-251-756-108 377-145 460-246 756" id="aj"/><g id="s"><use transform="matrix(0.008173828125000001,0,0,0.008173828125000001,0,0)" xlink:href="#aj"/><use transform="matrix(0.008173828125000001,0,0,0.008173828125000001,11.549619140625001,0)" xlink:href="#S"/><use transform="matrix(0.008173828125000001,0,0,0.008173828125000001,21.799599609375,0)" xlink:href="#S"/></g><g id="t"><use transform="matrix(0.008173828125000001,0,0,0.008173828125000001,0,0)" xlink:href="#Z"/><use transform="matrix(0.008173828125000001,0,0,0.008173828125000001,10.527890625000001,0)" xlink:href="#J"/><use transform="matrix(0.008173828125000001,0,0,0.008173828125000001,20.287441406250004,0)" xlink:href="#N"/><use transform="matrix(0.008173828125000001,0,0,0.008173828125000001,29.850820312500005,0)" xlink:href="#T"/><use transform="matrix(0.008173828125000001,0,0,0.008173828125000001,33.90503906250001,0)" xlink:href="#ad"/><use transform="matrix(0.008173828125000001,0,0,0.008173828125000001,44.15501953125001,0)" xlink:href="#J"/></g><path d="M174-520v-126l944-476v196L406-588v12l712 338v194" id="ak"/><path d="M370-1490V0H180v-1490h190" id="al"/><path d="M1181-520L237-44v-194l712-338v-12L237-926v-196l944 476v126" id="am"/><g id="u"><use transform="matrix(0.008173828125000001,0,0,0.008173828125000001,0,0)" xlink:href="#ak"/><use transform="matrix(0.008173828125000001,0,0,0.008173828125000001,11.075537109375002,0)" xlink:href="#ak"/><use transform="matrix(0.008173828125000001,0,0,0.008173828125000001,22.151074218750004,0)" xlink:href="#al"/><use transform="matrix(0.008173828125000001,0,0,0.008173828125000001,26.646679687500004,0)" xlink:href="#Y"/><use transform="matrix(0.008173828125000001,0,0,0.008173828125000001,36.53701171875001,0)" xlink:href="#N"/><use transform="matrix(0.008173828125000001,0,0,0.008173828125000001,46.10039062500001,0)" xlink:href="#W"/><use transform="matrix(0.008173828125000001,0,0,0.008173828125000001,50.15460937500001,0)" xlink:href="#ah"/><use transform="matrix(0.008173828125000001,0,0,0.008173828125000001,60.05311523437501,0)" xlink:href="#S"/><use transform="matrix(0.008173828125000001,0,0,0.008173828125000001,70.30309570312501,0)" xlink:href="#J"/><use transform="matrix(0.008173828125000001,0,0,0.008173828125000001,80.06264648437501,0)" xlink:href="#am"/><use transform="matrix(0.008173828125000001,0,0,0.008173828125000001,91.13818359375001,0)" xlink:href="#am"/></g><g id="v"><use transform="matrix(0.008173828125000001,0,0,0.008173828125000001,0,0)" xlink:href="#ak"/><use transform="matrix(0.008173828125000001,0,0,0.008173828125000001,11.075537109375002,0)" xlink:href="#ak"/><use transform="matrix(0.008173828125000001,0,0,0.008173828125000001,22.151074218750004,0)" xlink:href="#T"/><use transform="matrix(0.008173828125000001,0,0,0.008173828125000001,26.205292968750005,0)" xlink:href="#Y"/><use transform="matrix(0.008173828125000001,0,0,0.008173828125000001,36.095625000000005,0)" xlink:href="#N"/><use transform="matrix(0.008173828125000001,0,0,0.008173828125000001,45.65900390625001,0)" xlink:href="#W"/><use transform="matrix(0.008173828125000001,0,0,0.008173828125000001,49.71322265625001,0)" xlink:href="#ah"/><use transform="matrix(0.008173828125000001,0,0,0.008173828125000001,59.61172851562501,0)" xlink:href="#S"/><use transform="matrix(0.008173828125000001,0,0,0.008173828125000001,69.86170898437501,0)" xlink:href="#J"/><use transform="matrix(0.008173828125000001,0,0,0.008173828125000001,79.62125976562501,0)" xlink:href="#am"/><use transform="matrix(0.008173828125000001,0,0,0.008173828125000001,90.696796875,0)" xlink:href="#am"/></g><g id="w"><use transform="matrix(0.008173828125000001,0,0,0.008173828125000001,0,0)" xlink:href="#U"/><use transform="matrix(0.008173828125000001,0,0,0.008173828125000001,15.121582031250002,0)" xlink:href="#V"/><use transform="matrix(0.008173828125000001,0,0,0.008173828125000001,24.521484375000004,0)" xlink:href="#Y"/><use transform="matrix(0.008173828125000001,0,0,0.008173828125000001,34.411816406250004,0)" xlink:href="#V"/><use transform="matrix(0.008173828125000001,0,0,0.008173828125000001,43.811718750000004,0)" xlink:href="#ae"/><use transform="matrix(0.008173828125000001,0,0,0.008173828125000001,54.078046875000005,0)" xlink:href="#J"/></g><path d="M645 0H180v-1490h484c435 0 692 280 692 742 0 466-257 748-711 748zM370-168h263c363 0 539-218 539-580 0-358-176-574-521-574H370v1154" id="an"/><g id="x"><use transform="matrix(0.008173828125000001,0,0,0.008173828125000001,0,0)" xlink:href="#an"/><use transform="matrix(0.008173828125000001,0,0,0.008173828125000001,12.08091796875,0)" xlink:href="#T"/><use transform="matrix(0.008173828125000001,0,0,0.008173828125000001,16.13513671875,0)" xlink:href="#J"/><use transform="matrix(0.008173828125000001,0,0,0.008173828125000001,25.894687500000003,0)" xlink:href="#Q"/><use transform="matrix(0.008173828125000001,0,0,0.008173828125000001,31.452890625000002,0)" xlink:href="#V"/><use transform="matrix(0.008173828125000001,0,0,0.008173828125000001,40.85279296875001,0)" xlink:href="#K"/><use transform="matrix(0.008173828125000001,0,0,0.008173828125000001,47.41637695312501,0)" xlink:href="#O"/></g><path d="M180 0v-1490h224l606 953c40 63 108 177 176 312-27-437-7-821-13-1265h190V0h-226C860-448 622-778 356-1262c27 476 11 792 15 1262H180" id="ao"/><g id="y"><use transform="matrix(0.008173828125000001,0,0,0.008173828125000001,0,0)" xlink:href="#ao"/><use transform="matrix(0.008173828125000001,0,0,0.008173828125000001,12.612216796875002,0)" xlink:href="#J"/><use transform="matrix(0.008173828125000001,0,0,0.008173828125000001,22.371767578125002,0)" xlink:href="#J"/><use transform="matrix(0.008173828125000001,0,0,0.008173828125000001,32.131318359375,0)" xlink:href="#S"/><use transform="matrix(0.008173828125000001,0,0,0.008173828125000001,42.381298828125004,0)" xlink:href="#I"/></g><g id="z"><use transform="matrix(0.008173828125000001,0,0,0.008173828125000001,0,0)" xlink:href="#Z"/><use transform="matrix(0.008173828125000001,0,0,0.008173828125000001,10.691367187500001,0)" xlink:href="#V"/><use transform="matrix(0.008173828125000001,0,0,0.008173828125000001,20.091269531250003,0)" xlink:href="#Q"/><use transform="matrix(0.008173828125000001,0,0,0.008173828125000001,25.404257812500003,0)" xlink:href="#J"/></g></defs></g></svg>